<svg width="500" height="500" viewBox="0 0 500 500" fill="none" xmlns="http://www.w3.org/2000/svg">
<rect width="500" height="500" fill="#2D4170"/>
<path d="M69.045 267.617H48.3153C48.3153 267.617 48.5607 273.565 49.9099 277.716C51.2591 281.868 52.2471 285.15 54.9595 289.144C62.8713 300.795 72.5052 305.594 86.5856 305.887C98.6304 306.138 107.044 301.875 115.023 294.725C120.658 289.676 125.465 277.731 125.653 271.338C126.185 253.266 125.919 211.541 125.919 211.541H104.923C104.923 211.541 105.721 248.216 104.923 271.338C104.777 275.59 102.01 278.662 98.8108 281.437C94.9176 284.814 90.8378 285.689 86.5856 285.689C82.3333 285.689 76.1961 282.13 72.5 277.716C69.4809 274.111 69.045 267.617 69.045 267.617Z" fill="#37918B"/>
<path d="M190.766 206.225L138.676 299.509L163.923 299.775L191.563 249.811L219.203 299.775H242.856L190.766 206.225Z" fill="#37918B"/>
<path d="M324.334 268.15C324.334 268.15 315.297 282.177 298.554 280.907C290.362 280.286 285.074 277.807 279.685 271.605C274.56 265.708 272.857 260.546 273.041 252.736C273.213 245.413 274.94 240.776 279.685 235.195C285.611 228.226 293.659 225.567 302.806 225.628C314.234 225.704 323.27 237.056 323.27 237.056L346.392 236.524C346.392 236.524 340.014 220.844 330.446 214.732C320.156 208.157 313.423 204.71 301.212 204.632C288.31 204.55 279.795 207.307 269.852 215.529C260.999 222.848 256.737 228.783 254.171 239.979C251.248 252.736 252.321 263.304 254.969 270.011C258.955 280.11 263.739 286.488 276.23 295.259C283.651 300.469 289.495 301.249 298.554 301.637C311.311 302.183 315.297 300.308 325.131 295.259C340.471 287.381 346.924 268.15 346.924 268.15H324.334Z" fill="#37918B"/>
<path d="M369.892 207.82H391.153V253.532L423.842 207.82H448.824L416.135 254.329L456 301.901H431.284L391.153 254.86V301.901H369.892V207.82Z" fill="#37918B"/>
<path d="M63.7297 256.986H43C43 256.986 43.2454 262.934 44.5946 267.086C45.9438 271.237 46.9318 274.519 49.6441 278.514C57.556 290.165 67.1899 294.963 81.2703 295.257C93.3151 295.508 101.729 291.244 109.707 284.095C115.342 279.045 120.15 267.1 120.338 260.707C120.869 242.635 120.604 200.91 120.604 200.91H99.6081C99.6081 200.91 100.405 237.586 99.6081 260.707C99.4615 264.959 96.6945 268.031 93.4955 270.806C89.6023 274.184 85.5225 275.059 81.2703 275.059C77.018 275.059 70.8807 271.5 67.1847 267.086C64.1656 263.48 63.7297 256.986 63.7297 256.986Z" stroke="white" stroke-width="2"/>
<path d="M185.45 195.595L133.36 288.878L158.608 289.144L186.248 239.18L213.887 289.144H237.541L185.45 195.595Z" stroke="white" stroke-width="2"/>
<path d="M319.018 257.52C319.018 257.52 309.982 271.547 293.239 270.277C285.047 269.655 279.759 267.176 274.37 260.975C269.245 255.078 267.542 249.916 267.725 242.105C267.898 234.782 269.625 230.145 274.37 224.565C280.296 217.596 288.343 214.936 297.491 214.997C308.919 215.073 317.955 226.425 317.955 226.425L341.077 225.894C341.077 225.894 334.698 210.213 325.131 204.101C314.841 197.527 308.107 194.08 295.897 194.002C282.995 193.919 274.479 196.677 264.536 204.898C255.684 212.218 251.422 218.152 248.856 229.349C245.933 242.105 247.006 252.673 249.653 259.38C253.64 269.479 258.424 275.858 270.915 284.628C278.335 289.838 284.18 290.619 293.239 291.006C305.996 291.552 309.982 289.677 319.815 284.628C335.155 276.751 341.608 257.52 341.608 257.52H319.018Z" stroke="white" stroke-width="2"/>
<path d="M385.838 242.901V197.189H364.577V291.27H385.838V244.23M385.838 242.901L418.527 197.189H443.509L410.82 243.698L450.685 291.27H425.968L385.838 244.23M385.838 242.901V244.23" stroke="white" stroke-width="2"/>
</svg>
